<svg xmlns="http://www.w3.org/2000/svg" width="1123" height="794" stroke="#000" stroke-linecap="round" stroke-linejoin="round" fill="#fff" fill-rule="evenodd"><g stroke="none"><circle cx="545.5" cy="405.5" fill="#197eaf" r="355"/><circle cx="545.5" cy="405.5" fill="#d0edf5" r="335"/></g><path d="M301.9728802246 444.9204510254c-7.410888671875 0-13.47412109375 6.063201904297-13.47412109375 13.472869873047s6.063232421875 13.47412109375 13.47412109375 13.47412109375 13.47412109375-6.06314086914 13.47412109375-13.47412109375-6.064331054687-13.472869873047-13.47412109375-13.472869873047zm0-107.79037475587c-7.410888671875 0-13.47412109375 6.06314086914-13.47412109375 13.47412109375s6.063232421875 13.47412109375 13.47412109375 13.47412109375 13.47412109375-6.06317138672 13.47412109375-13.47412109375-6.064331054687-13.47412109375-13.47412109375-13.47412109375zm188.631286621093 296.4217224121c-7.410888671875 0-13.47412109375 6.063110351563-13.47412109375 13.47412109375s6.063232421875 13.47412109375 13.47412109375 13.47412109375 13.474243164063-6.063232421875 13.474243164063-13.47412109375-6.063232421875-13.47412109375-13.474243164063-13.47412109375zm-107.7890625-417.684967041015c-14.820678710938 0-26.94696044922 12.12628173828-26.94696044922 26.94694519043s12.125061035156 26.9482269287 26.94696044922 26.9482269287 26.947021484375-12.12629699707 26.947021484375-26.94696044922-12.126403808594-26.948211669922-26.947021484375-26.948211669922zm0 107.790405273437c-14.820678710938 0-26.94696044922 12.12631225586-26.94696044922 26.94696044922s12.12628173828 26.94692993164 26.94696044922 26.94692993164 26.947021484375-12.12631225586 26.947021484375-26.94692993164-12.126403808594-26.94696044922-26.947021484375-26.94696044922zm0 107.789093017578c-14.820678710938 0-26.94696044922 12.126373291016-26.94696044922 26.946990966797s12.12628173828 26.94696044922 26.94696044922 26.94696044922 26.947021484375-12.125030517578 26.947021484375-26.94696044922-12.126403808594-26.946990966797-26.947021484375-26.946990966797zm404.210815429697-67.3680114746c7.410888671875 0 13.47412109375-6.06317138672 13.47412109375-13.47412109375s-6.063232421875-13.47412109375-13.47412109375-13.47412109375-13.47412109375 6.06314086914-13.47412109375 13.47412109375 6.063232421875 13.47412109375 13.47412109375 13.47412109375zM598.393412451172 175.445734838867c7.410888671875 0 13.47412109375-6.06315612793 13.47412109375-13.47412109375s-6.063232421875-13.472854614258-13.47412109375-13.472854614258-13.47412109375 6.06315612793-13.47412109375 13.47412109375 6.064453125 13.472854614258 13.47412109375 13.472854614258zm-107.78924560547 94.3162689209c14.820678710937 0 26.947021484375-12.12629699707 26.947021484375-26.94696044922s-12.126342773438-26.946975708008-26.947021484375-26.946975708008-26.946899414063 12.12631225586-26.946899414063 26.946975708008 12.126342773438 26.94696044922 26.946899414063 26.94696044922zm0-94.3162689209c7.411010742188 0 13.474243164063-6.06315612793 13.474243164063-13.47412109375s-6.063232421875-13.472854614258-13.474243164063-13.472854614258-13.47412109375 6.06315612793-13.47412109375 13.47412109375 6.063232421875 13.472854614258 13.47412109375 13.472854614258zm107.78924560547 94.3162689209c14.820678710938 0 26.946899414063-12.12629699707 26.946899414063-26.94696044922S613.214091162 215.86806760254 598.393412451172 215.86806760254s-26.947021484375 12.12631225586-26.947021484375 26.946975708008 12.126342773438 26.94696044922 26.947021484375 26.94696044922zm-215.57830810547 269.473510742187c-14.820678710938 0-26.94696044922 12.126342773438-26.94696044922 26.94696044922s12.12628173828 26.94696044922 26.94696044922 26.94696044922 26.947021484375-12.125061035157 26.947021484375-26.945678710938-12.126403808594-26.9482421875-26.947021484375-26.9482421875zm215.57830810547-229.05239868164c-22.366760253906 0-40.421142578125 18.054290771484-40.421142578125 40.42108154297s18.05438232422 40.42108154297 40.421142578125 40.42108154297 40.421020507813-18.05435180664 40.421020507813-40.42108154297-18.054260253907-40.42108154297-40.421020507813-40.42108154297zm107.79034423828 121.263214111328c-14.820556640625 0-26.94696044922 12.126373291016-26.94696044922 26.946990966797s12.126403808594 26.94696044922 26.94696044922 26.94696044922 26.947143554687-12.12631225586 26.947143554687-26.94696044922-12.126525878906-26.946990966797-26.947143554687-26.946990966797zm0 107.789184570313c-14.820556640625 0-26.94696044922 12.126342773438-26.94696044922 26.94696044922s12.126403808594 26.94696044922 26.94696044922 26.94696044922 26.947143554687-12.125061035157 26.947143554687-26.945678710938-12.126525878906-26.9482421875-26.947143554687-26.9482421875zm0-215.57827758789c-14.820556640625 0-26.94696044922 12.12631225586-26.94696044922 26.94696044922s12.126403808594 26.94692993164 26.94696044922 26.94692993164 26.947143554687-12.12631225586 26.947143554687-26.94692993164-12.126525878906-26.94696044922-26.947143554687-26.94696044922zM787.0259197754 444.9204510254c-7.410888671875 0-13.47412109375 6.063201904297-13.47412109375 13.47412109375s6.063232421875 13.472869873047 13.47412109375 13.472869873047 13.47412109375-6.06314086914 13.47412109375-13.47412109375-6.064453125-13.472869873047-13.47412109375-13.472869873047zm-80.842163085947-229.053619384775c-14.820556640625 0-26.94696044922 12.12628173828-26.94696044922 26.94694519043s12.125061035156 26.9482269287 26.94696044922 26.9482269287 26.947143554687-12.12629699707 26.947143554687-26.94696044922-12.126525878906-26.948211669922-26.947143554687-26.948211669922zM490.604166845703 417.972208838c-22.36669921875 0-40.421020507813 18.05435180664-40.421020507813 40.421112060547s18.054321289063 40.42108154297 40.421020507813 40.42108154297 40.421142578125-18.054290771485 40.421142578125-40.42108154297S512.97104916992 417.972208838 490.604166845703 417.972208838zm0 121.263305664053c-14.820556640625 0-26.946899414063 12.126342773438-26.946899414063 26.94696044922s12.126342773438 26.94696044922 26.946899414063 26.94696044922 26.947021484375-12.126342773438 26.947021484375-26.94696044922-12.126342773438-26.94696044922-26.947021484375-26.94696044922zm0-229.05239868164c-22.36669921875 0-40.421020507813 18.054290771484-40.421020507813 40.42108154297s18.054321289063 40.42108154297 40.421020507813 40.42108154297 40.421142578125-18.05435180664 40.421142578125-40.42108154297-18.054260253907-40.42108154297-40.421142578125-40.42108154297zm107.78924560547 229.05239868164c-14.820678710937 0-26.947021484375 12.126342773438-26.947021484375 26.94696044922s12.126342773438 26.9482421875 26.947021484375 26.9482421875 26.946899414063-12.126342773438 26.946899414063-26.94696044922-12.125-26.9482421875-26.946899414063-26.9482421875zm0 94.316284179687c-7.411010742187 0-13.47412109375 6.063110351563-13.47412109375 13.47412109375s6.063110351563 13.47412109375 13.47412109375 13.47412109375 13.47412109375-6.063232421875 13.47412109375-13.47412109375-6.063232421875-13.47412109375-13.47412109375-13.47412109375zm0-215.57958984374c-22.366760253906 0-40.421142578125 18.05435180664-40.421142578125 40.421112060547s18.05438232422 40.42108154297 40.421142578125 40.42108154297 40.421020507813-18.054290771485 40.421020507813-40.42108154297S620.760172705078 417.972208838 598.393412451172 417.972208838z" fill="#197eaf" stroke="none" fill-rule="nonzero"/></svg>