<svg xmlns="http://www.w3.org/2000/svg" width="1077" height="750" stroke="#fff" stroke-linecap="round" stroke-linejoin="miter" fill="#fff" fill-rule="evenodd"><g fill="none" stroke-width="4"><path d="M403.979078491363 312.527989279144c-62.472686767578 2.173374176025-112.80796813965-10.94567489624-97.636764526367-57.293453216553 14.911346435546-45.553741455078 79.962265014648 6.074676513672 97.636764526367 57.293453216553z"/><path d="M357.800443847808 445.463921438567q16.510620117187-33.666812896728 24.436141967773-55.912092208862c8.585205078125-23.477046757937 15.93438720703-48.98452949524 21.74249267578-77.023839950562 64.733993530274 38.073859214783 107.663431167603 49.047306537628 176.54496383667 1.200954437256 40.050357818604-114.219535827637 103.68988418579-207.625144958496 198.162754058838-273.824851989746 70.57911682129 48.724487304688 160.85011291504 175.083770751953 172.942001342774 276.226840973m-911.54849243164 0C62.38212414566 220.79523552548 108.269056518706 128.080147634856 216.625318725737 42.306069265716c-86.8974609375 226.55442047119-48.321807861328 396.340377807617-2.401977539062 592.086151123046 50.826629638672-58.11911010742 104.133743286133-112.163314819336 143.58270263672-188.97442626953" stroke-linecap="butt"/><path d="M102.531629760894 708.853432546966c19.504852294922 96.047424316406 203.085739135742-12.622100830078 111.69171142578-74.461212158203 3.483825683594-54.63314819336-130.289916992187-17.12141418457-111.69171142578 74.461212158203zM981.4382764894 445.797913442962c35.586547851562 26.5072402954 85.779693603515 12.62156677246 91.49008178711-33.588104248047 12.311279296875-99.62621307373-103.366607666016-119.157859802246-121.299560546875-96.07887649536-7.537963867188 29.195405960083-8.202209472656 53.736803293228-4.26239013672 73.77446746826q8.412353515625 36.649757385254 34.054565429688 55.8352394104z"/><g stroke-linecap="butt"><path d="M214.223341186675 634.392220388762c381.39179611206-57.68881225586 712.67074584961 3.556945800782 564.463455200195-594.48812866211"/><path d="M534.436089386376 445.740692983978q22.875010818243-29.516117095947 30.518088668585-56.134059906006c8.924306869507-26.38567662239 11.103311538696-51.372339248657 15.56986427307-75.877689361572M214.223341186675 634.392220388763c191.637664794922-74.042877197266 278.609455108643-134.944915771484 320.338785797358-188.744171142578M216.625318725738 42.306069265716C456.00896282974 128.00504387509 535.17848034683 223.166085134857 580.524042328032 313.7289437164"/><path d="M40.080305298003 316.130932699553c307.534133911133-231.458499908447 423.222457885742-275.37497329712 738.606491088867-276.226840973"/><path d="M216.625318725737 42.306069265716c78.31053161621 50.197387695312 203.173622131348 172.350311279296 187.353759765625 270.221920013427m-363.89877319336 3.6029434204c163.030883789063 46.79760169983 269.505416870117 80.062259674073 363.89877319336-3.6029434204m0 0c52.256729125977-85.997188568115 126.43311548233-169.600261688232 374.707717895508-272.6238975525"/></g></g><path d="M48.250349243316 281.205788503997c19.672088623047 4.601875305176 31.90298461914 24.302520751953 27.301147460937 43.97463607788S51.2489759523 357.083438764922 31.576856811675 352.481514822356-.326158325043 328.179058920257 4.275709350738 308.50692833554s24.302520751953-31.903038024902 43.974639892578-27.301139831543zM245.52860852066 63.545449148528c-11.96337890625 16.280242919922-34.885711669922 19.783752441406-51.165985107422 7.820373535156s-19.783813476563-34.885803222656-7.820404052735-51.166015625S221.42802258316.4160240997 237.70829602066 12.379433523528s19.78369140625 34.885772705078 7.8203125 51.166015625zm3.49966430664 579.514373779297c-4.88217163086 19.604461669922-24.75537109375 31.553009033203-44.359741210937 26.67074584961s-31.55291748047-24.755310058593-26.670806884766-44.359741210937 24.755401611328-31.552932739258 44.359771728516-26.67073059082 31.553009033203 24.75535583496 26.670776367187 44.359725952148zm187.738899230957-345.07346343994c8.19076538086 18.468391418457-.150505065918 40.104806900024-18.618827819824 48.295572280883s-40.104782104492-.15051460266-48.29554748535-18.618837356567.150512695312-40.104789733887 18.618835449218-48.295555114746 40.104774475098.15047454834 48.295539855957 18.61882019043zm165.47714996338-12.80117034912c16.077728271485 12.234283447265 19.196975708008 35.212100982666 6.9627380371 51.289766311645s-35.212051391602 19.1970205307-51.289728164673 6.96273803711-19.19703221321-35.212034225463-6.9627380371-51.289735794067 35.211996078492-19.19699859619 51.289728164673-6.962768554687zM814.554609497222 39.778725515716c.070587158203 20.203063964843-16.2687072754 36.65707397461-36.471969604492 36.727722167968s-36.656997680664-16.268768310547-36.727600097656-36.4718322754 16.268829345703-36.657104492188 36.471862792968-36.72772216797 36.656997680665 16.26873779297 36.72770690918 36.47183227539zM955.8865186769 351.745303999297c-20.060455322266 2.398223876953-38.287567138672-11.936213493347-40.68585205078-31.99661540985s11.936126708984-38.28759765625 31.996459960937-40.685821533203 38.287658691406 11.93625640869 40.685943603516 31.996589660645-11.936340332032 38.287622451782-31.996551513672 40.68584728241z" stroke-width="6.61333" fill="#ffd600"/></svg>