<svg xmlns="http://www.w3.org/2000/svg" width="1123" height="794" stroke="#000" stroke-linecap="round" stroke-linejoin="round" fill="#fff" fill-rule="evenodd"><g stroke="#fff" stroke-linejoin="miter" fill="none" stroke-width="4"><path d="M430.63565299157 339.7212938306c-62.472686767578 2.173374176025-112.80796813965-10.94567489624-97.636764526367-57.293453216553 14.911346435546-45.553741455078 79.962265014648 6.074676513672 97.636764526367 57.293453216553z"/><path d="M384.457018348014 472.657225990013q16.510620117187-33.666812896728 24.436141967773-55.912092208862c8.585205078125-23.477046757937 15.93438720703-48.98452949524 21.74249267578-77.023839950562 64.733993530274 38.073859214783 107.663431167603 49.047306537628 176.54496383667 1.200954437256C647.230974646842 226.702712440208 710.87050101403 133.29710330935 805.343370887076 67.0973962781c70.57911682129 48.724487304688 160.85011291504 175.083770751953 172.942001342774 276.226840973m-911.54849243164 0c22.301818847656-95.335697174072 68.188751220703-188.050785064697 176.545013427734-273.824863433837-86.8974609375 226.55442047119-48.321807861328 396.340377807617-2.401977539062 592.086151123046 50.826629638672-58.11911010742 104.133743286133-112.163314819336 143.58270263672-188.97442626953" stroke-linecap="butt"/><path d="M129.188204261 736.046737098412c19.504852294922 96.047424316406 203.085739135742-12.622100830078 111.69171142578-74.461212158203 3.483825683594-54.63314819336-130.289916992187-17.12141418457-111.69171142578 74.461212158203zm878.906646728516-263.055519104004c35.586547851562 26.5072402954 85.779693603515 12.62156677246 91.49008178711-33.588104248047C1111.8962120736 339.77690067263 996.21832511071 320.245253944115 978.28537222985 343.32423725c-7.537963867188 29.195405960083-8.202209472656 53.736803293228-4.26239013672 73.77446746826q8.412353515625 36.649757385254 34.054565429688 55.8352394104z"/><g stroke-linecap="butt"><path d="M240.87991568688 661.585524940208C622.271711798942 603.89671268435 953.5506615365 665.142470741 805.343370887076 67.0973962781"/><path d="M561.092663886582 472.933997535424q22.875010818243-29.516117095947 30.518088668585-56.134059906006c8.924306869507-26.38567662239 11.103311538696-51.372339248657 15.56986427307-75.877689361572M240.87991568688 661.58552494021C432.517580481803 587.542647742943 519.489370795524 526.640609168725 561.21870148424 472.84135379763M243.281893225944 69.499373817162c239.383644104003 85.698974609375 318.553161621093 180.86001586914 363.898723602294 271.422874450684"/><path d="M66.73687979821 343.324237251C374.271013709342 111.865737342552 489.95933768395 67.94926395388 805.343370887076 67.0973962781"/><path d="M243.281893225943 69.499373817162c78.31053161621 50.197387695312 203.173622131348 172.350311279296 187.353759765625 270.221920013427M66.73687979821 343.324237251c163.030883789063 46.79760169983 269.505416870117 80.062259674073 363.89877319336-3.6029434204m0 0c52.256729125977-85.997188568115 126.43311548233-169.600261688232 374.707717895508-272.6238975525"/></g></g><path fill="#ffd600" d="M74.907 308.399c19.672 4.602 31.903 24.3025 27.301 43.9747s-24.3025 31.903-43.9746 27.3-31.903-24.3024-27.3012-43.9745 24.3026-31.903 43.9747-27.3012zM272.185 90.7388c-11.9633 16.2802-34.8857 19.7837-51.166 7.8204s-19.784-34.8858-7.8204-51.166 34.8858-19.7837 51.166-7.8203 19.7837 34.8857 7.8203 51.166zm3.4997 579.5144c-4.8822 19.6044-24.7554 31.553-44.3597 26.6707s-31.553-24.7553-26.6708-44.3597 24.7554-31.553 44.3597-26.6708 31.553 24.7554 26.6708 44.3598zm187.739-345.0735c8.1908 18.4684-.1505 40.1048-18.6188 48.2956s-40.1048-.1505-48.2956-18.619.1505-40.1048 18.619-48.2955 40.1047.1504 48.2955 18.6188zm165.4772-12.8012c16.0777 12.2343 19.197 35.212 6.9627 51.2898s-35.212 19.197-51.2897 6.9627-19.197-35.212-6.9628-51.2897 35.212-19.197 51.2898-6.9628zM841.211 66.972c.0706 20.203-16.2687 36.657-36.472 36.7277S768.0822 87.43 768.0116 67.228s16.2688-36.6572 36.4718-36.7278 36.657 16.2688 36.7277 36.472zm141.332 311.9665c-20.0605 2.3983-38.2876-11.9362-40.686-31.9966s11.936-38.2876 31.9965-40.6858 38.2876 11.9363 40.686 31.9966-11.9363 38.2876-31.9965 40.6858z" stroke-width="6.61333" stroke="#ffd600"/></svg>