<svg xmlns="http://www.w3.org/2000/svg" width="1123" height="794" stroke="#000" stroke-linecap="round" stroke-linejoin="round" fill="#fff" fill-rule="evenodd"><g fill="none" stroke="#4968b1" stroke-width="4" stroke-linejoin="miter"><path d="M430.635694400778 342.96507331355c-62.472708456642 2.1733849637-112.807959280896-10.945649895902-97.636762143145-57.293449864174 14.91135019595-45.553737191523 79.962260954932 6.07469072605 97.636762143145 57.293449864174z"/><path d="M384.457053098188 475.90103537324q16.51058325478-33.666831776506 24.436105958972-55.91210324683c8.5852026726-23.477049877206 15.934430375326-48.984528781365 21.742535343618-77.02385881286 64.733997812208 38.073879483737 107.663429763366 49.04732066199 176.544975450547 1.200975791446C647.2310463073 229.94649647777 710.870543872095 136.540888811808 805.343384070275 70.341192899087c70.57910434097 48.724488028515 160.850188639186 175.083761449375 172.9420002233 276.226828900378m-911.548476399566 0c22.301843998055-95.335694350777 68.188755681795-188.050778867128 176.544997969565-273.824860428224-86.897465263207 226.554421131032-48.321780440318 396.340381065457-2.401968472154 592.086174184698 50.82663830298-58.119129341353 104.13372385376-112.163341148257 143.582696171494-188.974437181583" stroke-linecap="butt"/><path d="M129.188223284117 739.290515825837c19.504846922638 96.047459971 203.085754246298-12.62213444393 111.691714107302-74.461180269898 3.483849625193-54.633185447542-130.289900351305-17.121434120823-111.691714107302 74.461180269898zM1008.094843503243 476.235019388c35.586551252796 26.50721697785 85.77975635348 12.621537689967 91.49012878625-33.58812218093 12.3112819277-99.626201920637-103.366658564-119.157846473983-121.299587995918-96.078875407704-7.53788077 29.195400791083-8.202191784356 53.736814552422-4.26235363352 73.774486989066q8.41240163133 36.649731519483 34.05453651864 55.835213737327z"/><g stroke-linecap="butt"><path d="M240.87993739142 664.82933555594c381.39177878497-57.688858475855 712.670693302036 3.556878798627 564.463446678857-594.488142656852"/><path d="M561.092719477595 476.1778103108q22.874998028967-29.516126489 30.51805140266-56.134064518028c8.924311745604-26.385698619 11.10333068597-51.372369299968 15.569898971072-75.87769668778M240.87993739142 664.82933555594c191.637671293635-74.042889521657 278.60942679525-134.944930293043 320.338818373833-188.74418022865M243.281905863573 72.74316137124c239.38368549702 85.69898063806 318.55319540797 180.86002452706 363.898763987753 271.422887733754"/><path d="M66.736907894008 346.568021799465C374.271044224223 115.10953995044 489.959349093695 71.193064808382 805.343384070275 70.341192899087"/><path d="M243.281905863573 72.74316137124c78.310558585556 50.19738939972 203.173629081954 172.350313041064 187.353788537205 270.221911942307m-363.89878650677 3.602948485917c163.03088524635 46.797615933435 269.50543844002 80.062258059143 363.89878650677-3.602948485916m0 2e-12c52.256736651858-85.9971633921 126.433106241726-169.600254042544 374.707689669498-272.623880414462"/></g></g><path d="M74.906942521515 311.642885035523c19.672118184 4.60187380116 31.903007219485 24.302503875968 27.301155937342 43.97462980078S77.90557487875 387.520526981823 58.23345669485 382.91861517982s-31.903007219486-24.302467986283-27.301155937342-43.974593911094 24.302523580108-31.90303255338 43.974641764007-27.301136233203zM272.185199813 93.98253560926c-11.963363108853 16.280258744793-34.8856961124 19.783767472177-51.1659773762 7.820381844307s-19.783789991194-34.88578618847-7.820404363324-51.165999895227 34.88578618847-19.783789991195 51.16606745228-7.820404363325S284.14858544087 77.702299383485 272.185199813 93.98253560926zm3.499680494425 579.51439226368c-4.88219052978 19.604471055624-24.75538102006 31.552971612992-44.359761999613 26.67071352616s-31.55290405594-24.755313463007-26.670781083212-44.359739480596 24.755403539078-31.552926574956 44.359784518632-26.67069100714 31.552971613 24.755313463007 26.670758564193 44.359716961578zM463.4237665612 328.423454419688c8.190763383024 18.468390850015-.150505852806 40.104795068967-18.618802404435 48.295562674308s-40.104793661528-.1505023342-48.295557044553-18.61883688668.150494593297-40.104792957808 18.618791144926-48.295545081325 40.104799291282.1504833338 48.295568304062 18.618819293698zm165.477176774513-12.801160632272c16.0776720345 12.23426407332 19.196938767948 35.21208815806 6.962728177293 51.289765822306s-35.212086750622 19.197011954754-51.289764414867 6.962730288453-19.19701476963-35.2120311568-6.96273099217-51.289748229325 35.21201074894-19.196992250615 51.289767229745-6.962747881434zm212.31028127193-245.406486777222c.07055208152 20.203094095218-16.268796564936 36.657087059266-36.471958217206 36.727729216856s-36.657064540248-16.268751527-36.72768417882-36.471823103 16.268864121988-36.657087059266 36.471868141135-36.727729216856 36.65706454025 16.268751527 36.727774254892 36.471823103zm141.331920382175 311.966586896513c-20.060391081943 2.398237352458-38.287599033267-11.936205877585-40.685874386567-31.996597663247s11.936115097797-38.287601848143 31.996506179738-40.685820904 38.287599033266 11.93624176727 40.685874386566 31.996576551668-11.936295249935 38.287641256424-31.996506179737 40.68584201548z" stroke-linejoin="miter" stroke-width="6.61333" fill="#ffd600" stroke="#ffd600"/></svg>